<?xml version="1.0" encoding="UTF-8"?>
<!DOCTYPE svg  PUBLIC '-//W3C//DTD SVG 1.1//EN'  'http://www.w3.org/Graphics/SVG/1.1/DTD/svg11.dtd'>
<svg clip-rule="evenodd" fill-rule="evenodd" image-rendering="optimizeQuality" shape-rendering="geometricPrecision" text-rendering="geometricPrecision" version="1.1" viewBox="0 0 2880 1800" xml:space="preserve" xmlns="http://www.w3.org/2000/svg">
 <metadata>
   <rdf:RDF xmlns:rdf="http://www.w3.org/1999/02/22-rdf-syntax-ns#">
     <rdf:Description rdf:about="">
       <dc:title xmlns:dc="http://purl.org/dc/elements/1.1/">Background FullStack Web Developer</dc:title>
       <dc:creator xmlns:dc="http://purl.org/dc/elements/1.1/">FullStack Web Developer Roman Primerov</dc:creator>
       <dc:source xmlns:dc="http://purl.org/dc/elements/1.1/">solarneutrino.com</dc:source>
     </rdf:Description>
   </rdf:RDF>
 </metadata>
 <defs>
  <style type="text/css">
   <![CDATA[
    .str1 {stroke:#F2F2F2;stroke-width:8;stroke-miterlimit:2.61313}
    .str0 {stroke:#F2F2F2;stroke-width:2;stroke-miterlimit:2.61313}
    .fil1 {fill:#F2F2F2}
    .fil0 {fill:#F8F8F8}
    .fil2 {fill:#F2F2F2;fill-rule:nonzero}
   ]]>
  </style>
 </defs>
 
  
  <rect class="fil0" width="2880" height="1800"/>
  <path class="fil1 str0" d="m1825 682.72c0.28 1.06 0.43 2.15 0.43 3.24v170.36h0.01c0 4.45-2.39 8.57-6.25 10.78l-142.98 82.32-0.01 163.17c0 4.44-2.36 8.54-6.21 10.78l-298.47 171.82c-0.68 0.39-1.43 0.63-2.17 0.9-0.28 0.09-0.55 0.26-0.84 0.34-1.03 0.26-2.11 0.4-3.18 0.4s-2.15-0.14-3.18-0.41c-0.34-0.09-0.65-0.28-0.98-0.4-0.68-0.25-1.4-0.47-2.05-0.84l-298.41-171.81c-3.86-2.23-6.24-6.34-6.24-10.78l-0.01-511.08c0-1.12 0.15-2.2 0.44-3.26 0.09-0.36 0.31-0.68 0.43-1.04 0.23-0.65 0.45-1.32 0.79-1.92 0.24-0.41 0.58-0.73 0.86-1.11 0.36-0.5 0.68-1.01 1.1-1.44 0.36-0.36 0.82-0.62 1.23-0.93 0.45-0.38 0.86-0.78 1.37-1.08l0.01 0.01 149.21-85.91c1.89-1.09 4.04-1.66 6.22-1.66s4.32 0.57 6.21 1.66l149.21 85.91h0.03c0.5 0.31 0.91 0.7 1.37 1.05 0.4 0.31 0.85 0.6 1.2 0.94 0.44 0.45 0.75 0.96 1.12 1.46 0.27 0.37 0.63 0.7 0.84 1.1 0.36 0.62 0.56 1.27 0.81 1.93 0.13 0.35 0.34 0.68 0.44 1.05 0.28 1.05 0.43 2.14 0.43 3.24v319.22l124.34-71.59v-163.19c0-1.09 0.16-2.19 0.44-3.23 0.11-0.38 0.31-0.7 0.43-1.06 0.25-0.65 0.46-1.32 0.81-1.92 0.24-0.41 0.58-0.73 0.84-1.11 0.38-0.49 0.68-1.01 1.12-1.44 0.36-0.36 0.81-0.62 1.21-0.93 0.46-0.38 0.87-0.78 1.37-1.08v0.01l149.23-85.91c1.89-1.09 4.04-1.67 6.22-1.67 2.17 0 4.32 0.58 6.2 1.67l149.22 85.9c0.52 0.31 0.93 0.7 1.39 1.06 0.39 0.31 0.84 0.59 1.2 0.93 0.43 0.45 0.74 0.97 1.12 1.46 0.28 0.38 0.62 0.7 0.84 1.11 0.36 0.6 0.56 1.27 0.81 1.92 0.14 0.36 0.34 0.68 0.43 1.06zm-24.44 166.42v-141.67l-52.22 30.05-72.14 41.54v141.67l124.37-71.59h-0.01zm-149.22 256.26v-141.75l-70.95 40.52-202.63 115.65v143.09l273.59-157.5-0.01-0.01zm-572-482.38v482.39l273.55 157.48v-143.06l-142.91-80.88-0.05-0.03-0.06-0.03c-0.48-0.28-0.89-0.68-1.34-1.03-0.39-0.31-0.84-0.55-1.18-0.89l-0.03-0.05c-0.4-0.39-0.68-0.87-1.02-1.3-0.32-0.42-0.69-0.78-0.94-1.21l-0.01-0.05c-0.29-0.46-0.46-1.03-0.66-1.55-0.2-0.47-0.46-0.9-0.59-1.4v-0.02c-0.15-0.59-0.19-1.21-0.25-1.82-0.06-0.46-0.18-0.93-0.18-1.39v-0.03-333.54l-72.12-41.55-52.21-30.03v-0.01zm136.79-93.07-124.33 71.56 124.3 71.57 124.31-71.58-124.31-71.55h0.03zm64.65 446.61 72.13-41.52v-312.02l-124.36 71.59v312.03l52.23-30.07v-0.01zm383.01-362.16-124.31 71.56 124.31 71.57 124.29-71.58-124.29-71.55zm-12.45 164.66-72.14-41.54-52.21-30.05v141.67l72.12 41.51 52.23 30.08v-141.67zm-286.03 319.25 182.33-104.1 91.15-52.01-124.22-71.52-143.02 82.34-130.35 75.04 124.11 70.24v0.01z"/>
  <path class="fil1" d="m2665.8 1028.2h-566.84v566.84h566.84v-566.84zm-282.46 421.62c0 47.68-28.39 75.45-77.33 75.45-46.73 0-75.12-27.77-76.38-70.27v-1.25h45.96v0.94c0.94 17.41 11.29 29.64 29.8 29.64 20.07 0 30.58-12.08 30.58-34.82v-156.37h47.37v156.68zm217.81 2.2c0 44.85-34.82 73.25-91.28 73.25-54.11 0-88.3-25.88-90.97-66.04l-0.15-2.51h45.64l0.15 1.57c1.73 16.94 20.08 28.39 46.59 28.39 25.25 0 42.66-12.08 42.66-29.48v-0.16c0-14.9-11.14-23.21-39.21-29.02l-23.85-4.86c-47.05-9.56-67.28-31.52-67.28-65.87v-0.16c0-42.03 36.07-69.79 86.26-69.79 52.86 0 83.91 27.92 86.89 65.71l0.16 2.04h-44.54l-0.32-1.88c-2.66-16.15-18.35-27.44-42.19-27.44-23.37 0.15-38.89 10.81-38.89 27.76v0.15c0 14.75 10.98 23.53 37.64 29.02l23.99 4.86c47.84 9.88 68.7 29.01 68.7 64.3v0.16z"/>
  
   <path class="fil2" d="m420.47 1324c0 8.21 0.88 14.86 2.44 19.74 1.77 4.88 3.99 10.21 7.1 15.98 1.1 1.77 1.55 3.55 1.55 5.1 0 2.22-1.33 4.44-4.22 6.65l-13.97 9.32c-2 1.33-4 2-5.77 2-2.22 0-4.44-1.11-6.66-3.11-3.1-3.33-5.76-6.87-7.98-10.42-2.22-3.78-4.44-7.99-6.88-13.09-17.3 20.41-39.04 30.61-65.22 30.61-18.63 0-33.5-5.32-44.37-15.97s-16.41-24.85-16.41-42.59c0-18.86 6.65-34.17 20.18-45.7 13.54-11.54 31.51-17.31 54.35-17.31 7.55 0 15.31 0.67 23.52 1.78s16.64 2.88 25.51 4.88v-16.19c0-16.86-3.55-28.62-10.42-35.5-7.1-6.88-19.08-10.2-36.16-10.2-7.77 0-15.76 0.88-23.96 2.88-8.21 2-16.2 4.44-23.96 7.54-3.55 1.56-6.21 2.44-7.77 2.89-1.55 0.44-2.66 0.66-3.55 0.66-3.1 0-4.65-2.22-4.65-6.87v-10.88c0-3.54 0.44-6.21 1.55-7.76s3.1-3.1 6.21-4.66c7.76-3.99 17.08-7.32 27.95-9.98 10.87-2.88 22.41-4.21 34.61-4.21 26.4 0 45.7 5.98 58.12 17.96 12.2 11.98 18.41 30.17 18.41 54.58v71.87h0.45zm-90.07 33.72c7.32 0 14.86-1.33 22.85-3.99 7.99-2.67 15.08-7.55 21.07-14.2 3.55-4.22 6.22-8.87 7.55-14.2 1.33-5.32 2.22-11.76 2.22-19.3v-9.31c-6.44-1.56-13.31-2.89-20.41-3.78-7.1-0.88-13.98-1.33-20.86-1.33-14.86 0-25.73 2.89-33.05 8.88s-10.87 14.42-10.87 25.51c0 10.42 2.66 18.19 8.21 23.51 5.32 5.55 13.09 8.21 23.29 8.21zm178.14 23.96c-4 0-6.66-0.67-8.43-2.22-1.78-1.33-3.33-4.44-4.66-8.65l-52.14-171.48c-1.33-4.44-1.99-7.32-1.99-8.88 0-3.54 1.77-5.54 5.32-5.54h21.74c4.22 0 7.1 0.66 8.65 2.22 1.78 1.33 3.11 4.43 4.44 8.65l37.27 146.86 34.61-146.86c1.11-4.44 2.44-7.32 4.21-8.65 1.78-1.33 4.88-2.22 8.88-2.22h17.74c4.22 0 7.1 0.66 8.88 2.22 1.77 1.33 3.32 4.43 4.21 8.65l35.05 148.63 38.38-148.63c1.33-4.44 2.88-7.32 4.43-8.65 1.78-1.33 4.66-2.22 8.66-2.22h20.63c3.55 0 5.54 1.77 5.54 5.54 0 1.11-0.22 2.22-0.44 3.55-0.22 1.34-0.66 3.11-1.55 5.55l-53.47 171.48c-1.33 4.44-2.88 7.32-4.65 8.65-1.78 1.33-4.66 2.22-8.43 2.22h-19.08c-4.22 0-7.1-0.67-8.88-2.22-1.77-1.55-3.32-4.43-4.21-8.87l-34.39-143.09-34.16 142.87c-1.11 4.43-2.44 7.32-4.21 8.87-1.78 1.55-4.88 2.22-8.88 2.22h-19.07zm285.06 5.99c-11.54 0-23.07-1.33-34.17-4-11.09-2.66-19.74-5.54-25.51-8.87-3.55-1.99-5.99-4.21-6.87-6.21-0.89-2-1.34-4.21-1.34-6.21v-11.32c0-4.65 1.78-6.87 5.11-6.87 1.33 0 2.66 0.22 3.99 0.66 1.33 0.45 3.33 1.33 5.55 2.22 7.54 3.33 15.75 5.99 24.4 7.77 8.87 1.77 17.52 2.66 26.4 2.66 13.97 0 24.84-2.44 32.38-7.32 7.55-4.88 11.54-11.98 11.54-21.08 0-6.21-2-11.31-5.99-15.53-3.99-4.21-11.54-7.98-22.41-11.53l-32.16-9.98c-16.2-5.11-28.17-12.65-35.5-22.63-7.32-9.76-11.09-20.63-11.09-32.17 0-9.31 2-17.52 5.99-24.62s9.32-13.31 15.97-18.19c6.66-5.1 14.2-8.88 23.08-11.54 8.87-2.66 18.19-3.77 27.95-3.77 4.88 0 9.98 0.22 14.86 0.89 5.1 0.66 9.76 1.55 14.42 2.44 4.44 1.11 8.65 2.22 12.64 3.55 4 1.33 7.1 2.66 9.32 3.99 3.11 1.78 5.33 3.55 6.66 5.55 1.33 1.77 1.99 4.21 1.99 7.32v10.42c0 4.66-1.77 7.1-5.1 7.1-1.77 0-4.66-0.88-8.43-2.66-12.64-5.77-26.84-8.65-42.59-8.65-12.65 0-22.63 2-29.51 6.21-6.87 4.22-10.42 10.65-10.42 19.74 0 6.22 2.22 11.54 6.65 15.75 4.44 4.22 12.65 8.43 24.4 12.21l31.51 9.98c15.97 5.1 27.5 12.2 34.38 21.29 6.88 9.1 10.21 19.53 10.21 31.06 0 9.54-2 18.19-5.77 25.73-4 7.55-9.32 14.2-16.2 19.53-6.87 5.54-15.08 9.54-24.62 12.42-9.98 3.11-20.41 4.66-31.72 4.66z"/>
   <path class="fil2" d="m835.52 1495.4c-72.98 53.91-179.02 82.52-270.19 82.52-127.78 0-242.92-47.25-329.88-125.78-6.87-6.21-0.66-14.64 7.55-9.76 94.06 54.57 210.08 87.63 330.09 87.63 80.97 0 169.93-16.86 251.78-51.47 12.21-5.55 22.63 7.99 10.65 16.86zm30.4-34.61c-9.32-11.97-61.68-5.76-85.41-2.88-7.1 0.89-8.21-5.32-1.78-9.98 41.71-29.28 110.26-20.86 118.24-11.09 7.99 9.98-2.22 78.53-41.26 111.36-5.99 5.1-11.76 2.44-9.09-4.22 8.87-21.96 28.61-71.43 19.3-83.19z"/>
  
  <path class="fil2 str1" d="m672.78 288.77c-10.52-38.96-88.79-77.29-225.73-77.29-136.93 0-215.21 38.33-225.72 77.29-0.77 1.34-1.33 2.8-1.33 4.45v4.54 104.45 4.54 4.54 99.9 4.54 4.54 108.99c0 1.47 0.39 2.86 1.06 4.1 10.73 44.45 106.69 77.64 225.99 77.64 119.03 0 214.84-33.05 225.92-77.34 0.73-1.3 1.14-2.8 1.14-4.4v-108.99-4.54-4.54-99.9-4.54-4.54-104.45-4.54c0-1.65-0.57-3.11-1.33-4.45zm-17.56 231.37c-0.25 1.1-0.6 2.19-1.05 3.3-0.36 0.89-0.81 1.79-1.3 2.69-0.61 1.12-1.29 2.24-2.09 3.35-0.6 0.85-1.29 1.68-1.99 2.52-1.01 1.19-2.08 2.38-3.3 3.56-0.74 0.72-1.54 1.43-2.36 2.14-1.49 1.3-3.04 2.59-4.78 3.87-0.74 0.56-1.54 1.09-2.33 1.64-2.06 1.41-4.2 2.82-6.55 4.2-0.62 0.37-1.28 0.73-1.93 1.09-2.7 1.53-5.53 3.04-8.58 4.52-0.39 0.19-0.8 0.37-1.2 0.55-3.4 1.61-6.96 3.19-10.77 4.71-0.11 0.05-0.22 0.08-0.33 0.13-20.62 8.24-47.01 15.17-77.75 19.71-0.15 0.02-0.31 0.04-0.46 0.06-5.98 0.88-12.11 1.66-18.4 2.35-1.03 0.11-2.11 0.19-3.15 0.29-5.49 0.58-11.05 1.1-16.77 1.52-2.62 0.19-5.36 0.28-8.02 0.45-4.3 0.25-8.56 0.53-12.98 0.69-7.21 0.22-14.57 0.37-22.08 0.37s-14.86-0.15-22.08-0.4c-4.42-0.15-8.68-0.44-12.98-0.69-2.66-0.15-5.41-0.25-8.02-0.45-5.72-0.41-11.28-0.94-16.78-1.51-1.03-0.11-2.11-0.18-3.14-0.29-6.29-0.69-12.42-1.48-18.4-2.36-0.15-0.01-0.31-0.03-0.46-0.06-30.75-4.54-57.13-11.47-77.75-19.71-0.11-0.03-0.22-0.08-0.33-0.12-3.81-1.53-7.38-3.11-10.77-4.72-0.39-0.19-0.81-0.37-1.2-0.55-3.05-1.47-5.88-2.98-8.58-4.52-0.64-0.36-1.31-0.71-1.93-1.09-2.35-1.38-4.5-2.78-6.55-4.2-0.78-0.54-1.59-1.08-2.33-1.64-1.74-1.28-3.29-2.57-4.78-3.86-0.81-0.71-1.63-1.42-2.36-2.15-1.22-1.18-2.29-2.36-3.3-3.56-0.71-0.83-1.39-1.67-1.99-2.51-0.8-1.12-1.48-2.24-2.1-3.35-0.49-0.9-0.92-1.8-1.29-2.7-0.45-1.1-0.8-2.2-1.06-3.3-0.33-1.44-0.71-2.91-0.71-4.38 0-1.02 0.12-2.05 0.29-3.07 0.22-1.37 0.1-2.74-0.29-4.04v-67.42c0.26 0.23 0.58 0.46 0.84 0.7 1.98 1.74 4 3.47 6.27 5.14 34.21 25.88 102.62 45.99 201.78 45.99 98.74 0 166.99-19.95 201.35-45.67 2.74-1.99 5.21-4.06 7.53-6.15l0.01-0.01v67.42c-0.38 1.3-0.51 2.67-0.28 4.04 0.17 1.02 0.28 2.05 0.28 3.07 0 1.47-0.37 2.94-0.72 4.41zm0.72-187.93v67.43c-0.38 1.3-0.51 2.67-0.28 4.04 0.17 1.02 0.28 2.04 0.28 3.07 0 1.46-0.37 2.93-0.71 4.4-0.26 1.1-0.61 2.19-1.06 3.3-0.36 0.9-0.81 1.8-1.3 2.7-0.61 1.11-1.29 2.23-2.09 3.35-0.6 0.84-1.28 1.68-1.99 2.51-1.01 1.19-2.08 2.38-3.3 3.56-0.74 0.72-1.54 1.43-2.36 2.15-1.49 1.3-3.04 2.59-4.78 3.87-0.74 0.55-1.54 1.09-2.33 1.63-2.06 1.42-4.2 2.83-6.55 4.21-0.62 0.37-1.28 0.72-1.93 1.09-2.7 1.52-5.53 3.04-8.58 4.51-0.39 0.19-0.8 0.37-1.2 0.55-3.4 1.61-6.96 3.19-10.77 4.72-0.11 0.04-0.22 0.08-0.33 0.12-20.62 8.24-47.01 15.17-77.75 19.71-0.15 0.02-0.31 0.04-0.46 0.07-5.98 0.88-12.11 1.66-18.4 2.35-1.03 0.11-2.11 0.18-3.14 0.29-5.5 0.57-11.06 1.1-16.78 1.52-2.62 0.19-5.36 0.28-8.02 0.44-4.3 0.26-8.56 0.54-12.98 0.69-7.21 0.23-14.57 0.37-22.08 0.37s-14.86-0.14-22.08-0.4c-4.42-0.15-8.68-0.44-12.98-0.69-2.66-0.15-5.41-0.25-8.02-0.44-5.72-0.42-11.28-0.95-16.78-1.52-1.03-0.11-2.11-0.18-3.14-0.29-6.29-0.69-12.42-1.48-18.4-2.35-0.15-0.02-0.31-0.04-0.46-0.06-30.75-4.54-57.13-11.48-77.75-19.71-0.11-0.04-0.22-0.08-0.33-0.13-3.81-1.53-7.38-3.11-10.77-4.71-0.39-0.19-0.81-0.38-1.2-0.56-3.05-1.47-5.88-2.98-8.58-4.51-0.64-0.36-1.31-0.72-1.93-1.09-2.35-1.38-4.5-2.79-6.55-4.21-0.78-0.54-1.59-1.08-2.33-1.63-1.74-1.28-3.29-2.57-4.78-3.87-0.81-0.71-1.63-1.42-2.36-2.14-1.22-1.18-2.29-2.36-3.3-3.56-0.71-0.84-1.39-1.67-1.99-2.52-0.8-1.12-1.48-2.23-2.1-3.35-0.49-0.9-0.92-1.8-1.29-2.7-0.45-1.1-0.8-2.2-1.06-3.29-0.33-1.45-0.71-2.92-0.71-4.38 0-1.03 0.12-2.05 0.29-3.07 0.22-1.37 0.1-2.74-0.29-4.04v-67.43c1.09 0.99 2.34 1.96 3.52 2.94 0.65 0.55 1.26 1.09 1.95 1.64 2.73 2.14 5.67 4.26 8.86 6.32 0.66 0.43 1.4 0.84 2.1 1.27 2.67 1.66 5.49 3.29 8.46 4.89 1.1 0.59 2.2 1.17 3.33 1.75 3.32 1.69 6.8 3.33 10.46 4.92 0.6 0.27 1.14 0.54 1.75 0.79 4.26 1.81 8.78 3.54 13.49 5.21 1.3 0.46 2.66 0.9 3.99 1.35 3.74 1.26 7.61 2.47 11.62 3.64 1.44 0.42 2.86 0.86 4.34 1.26 5.31 1.47 10.8 2.87 16.56 4.15 0.79 0.19 1.64 0.33 2.44 0.5 5.08 1.11 10.34 2.14 15.76 3.1 1.83 0.33 3.69 0.64 5.56 0.95 5.15 0.84 10.46 1.61 15.9 2.32 1.4 0.18 2.73 0.39 4.15 0.56 6.76 0.82 13.75 1.52 20.93 2.12 1.77 0.14 3.62 0.25 5.42 0.38 5.74 0.42 11.62 0.76 17.63 1.04 2.19 0.1 4.37 0.2 6.61 0.28 7.83 0.26 15.8 0.45 24.06 0.45 8.27 0 16.24-0.19 24.07-0.45 2.23-0.08 4.41-0.18 6.6-0.28 6.02-0.27 11.89-0.62 17.64-1.04 1.8-0.13 3.63-0.23 5.41-0.38 7.19-0.59 14.18-1.3 20.94-2.12 1.42-0.17 2.75-0.38 4.15-0.56 5.44-0.71 10.73-1.48 15.89-2.32 1.87-0.31 3.74-0.62 5.57-0.95 5.41-0.96 10.68-1.99 15.76-3.1 0.8-0.17 1.65-0.32 2.44-0.5 5.76-1.28 11.24-2.69 16.56-4.15 1.48-0.41 2.9-0.84 4.34-1.26 4-1.17 7.87-2.38 11.61-3.64 1.34-0.45 2.7-0.89 4-1.35 4.71-1.67 9.24-3.4 13.49-5.21 0.61-0.25 1.15-0.52 1.75-0.79 3.66-1.6 7.14-3.23 10.45-4.92 1.14-0.58 2.25-1.16 3.34-1.75 2.97-1.59 5.79-3.22 8.46-4.89 0.69-0.43 1.44-0.84 2.1-1.27 3.19-2.06 6.13-4.17 8.86-6.32 0.68-0.55 1.29-1.09 1.95-1.64 1.18-0.98 2.42-1.95 3.51-2.94zm-208.89-102.56c123.11 0 208.89 35.89 208.89 68.11 0 32.23-85.78 68.12-208.89 68.12-123.1 0-208.89-35.89-208.89-68.12 0-32.22 85.79-68.11 208.89-68.11zm208.89 396.91c-0.12 0.4-0.22 0.81-0.29 1.23-5.15 31.41-90.2 65.05-208.6 65.05-118.39 0-203.45-33.64-208.59-65.05-0.08-0.41-0.18-0.81-0.3-1.19v-76.42c0.26 0.24 0.58 0.47 0.84 0.7 1.98 1.74 4 3.48 6.27 5.15 34.21 25.88 102.62 45.98 201.78 45.98 98.74 0 166.99-19.94 201.35-45.66 2.74-2 5.21-4.06 7.53-6.16l0.01-0.01v76.38z"/>
  
   
    
     <path class="fil2" d="m1989.9 213.57h107.95c31.69 0.27 54.65 9.35 68.89 27.25 14.23 17.91 18.93 42.36 14.1 73.36-1.89 14.16-6.05 28.06-12.49 41.69-6.18 13.63-14.77 25.92-25.78 36.88-13.43 13.89-27.8 22.71-43.1 26.45-15.31 3.74-31.16 5.62-47.54 5.62h-48.34l-15.3 76.16h-56l57.61-287.41zm47.13 45.69-24.17 120.26c1.61 0.27 3.22 0.4 4.83 0.4h5.64c25.78 0.27 47.27-2.27 64.45-7.62 17.19-5.61 28.74-25.12 34.65-58.52 4.83-28.06 0-44.23-14.51-48.5-14.23-4.28-32.09-6.28-53.57-6.02-3.22 0.27-6.31 0.4-9.27 0.4h-8.46l0.41-0.4z"/>
    
    <path class="fil2" d="m2244.6 137.03h55.59l-15.71 76.56h49.95c27.4 0.53 47.81 6.15 61.23 16.83 13.7 10.69 17.73 31 12.09 60.93l-26.99 133.49h-56.4l25.78-127.47c2.69-13.36 1.88-22.85-2.41-28.46-4.3-5.62-13.57-8.42-27.8-8.42l-44.71-0.4-33.03 164.75h-55.59l58-287.81z"/>
    
     <path class="fil2" d="m2467.4 213.57h107.96c31.68 0.27 54.65 9.35 68.88 27.25 14.23 17.91 18.93 42.36 14.1 73.36-1.88 14.16-6.05 28.06-12.49 41.69-6.18 13.63-14.77 25.92-25.78 36.88-13.43 13.89-27.8 22.71-43.1 26.45-15.31 3.74-31.16 5.62-47.54 5.62h-48.34l-15.3 76.16h-56l57.61-287.41zm47.13 45.69-24.17 120.26c1.61 0.27 3.22 0.4 4.83 0.4h5.64c25.78 0.27 47.27-2.27 64.45-7.62 17.19-5.61 28.74-25.12 34.65-58.52 4.83-28.06 0-44.23-14.5-48.5-14.24-4.28-32.1-6.28-53.58-6.02-3.22 0.27-6.31 0.4-9.26 0.4h-8.46l0.4-0.4zm0 0z"/>
    
   
  
 
</svg>
