<?xml version="1.0" standalone="no"?>
<!DOCTYPE svg PUBLIC "-//W3C//DTD SVG 20010904//EN"
 "http://www.w3.org/TR/2001/REC-SVG-20010904/DTD/svg10.dtd">
<svg version="1.0" xmlns="http://www.w3.org/2000/svg"
 width="700.000000pt" height="700.000000pt" viewBox="0 0 700.000000 700.000000"
 preserveAspectRatio="xMidYMid meet">
<metadata>
Created by potrace 1.14, written by Peter Selinger 2001-2017
</metadata>
<g transform="translate(0.000000,700.000000) scale(0.100000,-0.100000)"
fill="#000000" stroke="none">
<path d="M1370 6924 c-63 -36 -155 -90 -205 -119 -49 -29 -110 -64 -135 -77
-25 -14 -148 -85 -275 -158 -126 -73 -315 -182 -420 -242 -104 -60 -201 -121
-215 -134 l-25 -24 -2 -2288 c-2 -1818 0 -2292 10 -2312 7 -13 30 -36 52 -51
30 -20 835 -484 1415 -817 19 -11 302 -174 629 -362 l594 -342 51 4 c33 3 67
14 94 32 24 15 65 39 90 53 63 35 423 242 544 314 l98 57 0 -224 c0 -206 1
-224 18 -225 48 -3 409 -4 418 -1 8 2 11 94 12 310 0 169 1 312 1 318 1 7 34
11 102 10 112 -1 104 3 185 -108 56 -77 275 -373 287 -388 7 -9 32 -42 56 -75
25 -33 48 -62 52 -65 10 -7 527 -5 534 2 4 4 -13 31 -37 60 -42 52 -69 88
-311 398 -62 80 -137 176 -166 213 -29 37 -52 69 -50 71 2 1 31 18 64 36 75
42 193 160 223 223 29 63 52 159 52 225 0 41 4 54 18 59 9 4 77 42 151 85 73
43 135 78 137 78 2 0 32 17 67 39 l63 38 -1 -763 c0 -501 3 -765 10 -767 9 -3
388 -1 425 2 13 1 15 38 14 273 -1 150 1 278 3 283 2 6 70 10 176 10 185 0
271 7 355 31 169 48 315 163 387 304 85 168 89 394 9 552 -52 102 -185 206
-316 244 -119 36 -169 39 -618 39 -312 0 -406 3 -410 12 -10 25 -5 1292 5
1301 6 5 159 95 340 199 885 507 934 537 950 568 14 27 16 117 13 818 l-3 789
-26 22 c-15 13 -78 52 -140 88 -63 36 -319 184 -569 328 -693 399 -662 383
-699 375 -16 -3 -122 -60 -237 -127 -115 -66 -225 -129 -244 -140 -53 -31
-356 -204 -535 -308 -88 -51 -204 -118 -259 -149 -54 -31 -106 -67 -115 -81
-14 -22 -17 -102 -21 -763 l-5 -740 -240 -138 c-132 -77 -262 -152 -290 -167
-77 -44 -117 -67 -294 -169 -91 -53 -188 -108 -216 -124 l-52 -28 1 1412 c1
1221 -1 1416 -14 1445 -12 29 -97 91 -170 125 -8 4 -31 17 -50 28 -19 12 -156
91 -305 177 -148 85 -342 196 -430 247 -88 51 -176 101 -195 112 -19 11 -75
44 -125 73 -131 76 -144 76 -285 -6z m256 -232 c28 -17 76 -44 105 -60 69 -39
769 -442 833 -480 l48 -29 -541 -311 c-298 -172 -544 -313 -549 -315 -8 -2
-1059 598 -1081 618 -11 11 -1 20 55 52 60 35 617 355 714 411 19 11 91 52
159 91 68 39 129 75 134 80 7 7 21 4 41 -8 17 -11 54 -33 82 -49z m4025 -788
c101 -59 202 -117 224 -129 22 -13 181 -104 354 -204 172 -100 318 -181 324
-181 7 0 5 -6 -3 -14 -12 -11 -276 -165 -470 -274 -25 -14 -57 -33 -72 -43
-14 -11 -29 -19 -32 -19 -3 0 -118 -65 -255 -145 -137 -80 -252 -145 -255
-145 -4 0 -36 18 -72 40 -36 22 -67 40 -69 40 -1 0 -65 36 -141 81 -77 44
-164 95 -194 112 -30 16 -167 95 -305 175 -137 79 -265 152 -283 162 l-33 18
113 65 c139 81 983 567 984 567 0 0 83 -48 185 -106z m-5281 -4 c28 -16 55
-30 60 -30 6 0 10 -4 10 -10 0 -5 4 -10 9 -10 7 0 117 -61 181 -100 13 -8 305
-176 660 -379 l115 -66 1 -1473 c1 -810 5 -1485 9 -1500 6 -26 41 -72 55 -72
4 0 47 -23 96 -51 49 -29 109 -63 134 -77 65 -36 612 -346 830 -470 102 -57
187 -106 189 -109 9 -7 6 -1253 -2 -1253 -8 0 -140 75 -1172 670 -308 177
-576 332 -595 342 -19 11 -109 63 -200 116 -91 52 -183 105 -205 117 -22 13
-83 48 -135 78 l-95 55 -3 2126 c-1 1169 0 2126 3 2126 2 0 27 -13 55 -30z
m2355 -1342 c0 -893 -3 -1365 -10 -1374 -8 -10 -974 -572 -1063 -618 l-27 -14
2 1347 c1 740 2 1360 2 1376 1 27 10 35 79 74 42 25 145 84 227 131 83 48 170
98 195 112 25 14 61 34 80 45 358 208 506 291 509 287 3 -3 5 -617 6 -1366z
m1745 510 c91 -53 181 -104 200 -115 86 -49 676 -387 680 -391 3 -2 5 -284 5
-627 l0 -623 -25 13 c-14 7 -65 37 -115 65 -49 29 -110 64 -135 78 -25 14 -57
32 -72 41 -27 16 -325 188 -386 222 -93 54 -176 101 -262 151 l-95 56 -3 627
-2 627 22 -14 c13 -8 97 -58 188 -110z m2200 -505 l-1 -628 -176 -100 c-97
-55 -197 -112 -222 -126 -25 -14 -102 -59 -171 -99 -69 -40 -150 -86 -180
-103 -30 -17 -119 -68 -197 -113 -79 -46 -144 -82 -144 -81 -1 1 -2 280 -3
621 -1 609 -1 619 19 633 15 11 1059 616 1073 622 1 1 2 -281 2 -626z m-2132
-1036 c213 -123 458 -264 544 -313 87 -49 157 -91 158 -94 0 -4 -283 -167
-539 -311 -25 -14 -104 -60 -176 -101 -71 -41 -146 -84 -165 -94 -32 -18 -215
-122 -293 -167 -55 -32 -240 -138 -577 -330 -179 -102 -341 -194 -360 -206
-19 -11 -42 -24 -50 -28 -8 -4 -46 -26 -85 -48 -38 -23 -91 -53 -116 -67 l-46
-26 -114 65 c-63 36 -152 87 -199 113 -47 26 -166 94 -265 150 -221 126 -219
125 -383 217 l-133 75 348 200 c191 111 364 210 383 221 19 10 107 61 195 112
88 51 176 102 195 112 115 65 847 487 943 544 26 16 49 29 51 29 2 0 68 38
147 85 79 46 145 84 147 85 2 0 177 -100 390 -223z m817 -1231 c0 -338 -2
-616 -5 -618 -7 -6 -66 -41 -120 -70 -25 -14 -73 -42 -108 -62 l-63 -38 -52
56 c-81 87 -193 144 -337 172 -19 4 -252 9 -517 11 l-483 5 0 -526 c0 -289 -4
-526 -8 -526 -7 0 -591 -332 -632 -360 -8 -5 -31 -19 -51 -29 l-36 -20 1 631
1 632 165 94 c91 52 183 104 205 116 22 12 276 157 565 323 289 165 545 311
570 325 25 14 122 69 215 123 94 54 188 108 210 120 351 200 452 258 459 266
6 5 12 5 16 0 3 -6 5 -286 5 -625z m-880 -881 c85 -17 151 -70 157 -125 3 -19
-12 -32 -86 -76 -49 -30 -90 -54 -91 -54 -1 0 -72 -40 -158 -90 -85 -49 -161
-91 -167 -92 -10 -2 -13 44 -12 197 0 110 1 212 1 226 l1 26 158 -2 c86 -1
175 -5 197 -10z m1903 -24 c59 -27 113 -83 129 -136 15 -48 9 -151 -12 -203
-10 -23 -36 -58 -58 -78 -62 -52 -126 -67 -297 -68 l-145 -1 -1 250 c0 138 1
254 4 259 2 4 77 6 166 4 142 -3 167 -7 214 -27z"/>
</g>
</svg>
