<?xml version="1.0" encoding="UTF-8"?>
<!DOCTYPE svg  PUBLIC '-//W3C//DTD SVG 1.1//EN'  'http://www.w3.org/Graphics/SVG/1.1/DTD/svg11.dtd'>
<svg clip-rule="evenodd" fill-rule="evenodd" image-rendering="optimizeQuality" shape-rendering="geometricPrecision" text-rendering="geometricPrecision" version="1.1" viewBox="0 0 160 160" xml:space="preserve" xmlns="http://www.w3.org/2000/svg">
 <defs>
  <style type="text/css">
   <![CDATA[
    .fil0 {fill:black}
   ]]>
  </style>
 </defs>
 
  
  
   <path class="fil0" d="m105.11 66.24c1.42 0.01 2.85 0.1 4.27 0.22l0.1 0.01c6.98 1.08 13.62 4.06 20.28 5.29 0 0 1.97 0.44 3.4 0.72 7.04 1.34 14.26 1.45 21.14 0.32 1.86-0.32 3.72-0.64 5.57-0.96l0.13-0.02c-6.99 2.63-13.92 4.95-21.7 5.4-3.15 0.19-6.26 0.08-9.34-0.32-3.97-0.51-8.59-2.34-12.54-3.54-0.94-0.28-1.87-0.54-2.82-0.77-1.54-0.38-3.1-0.69-4.66-0.93 0 0-2.13-0.43-3.66-0.69-6.47-1.09-13.11-1.14-19.57-0.11-1.87 0.31-3.73 0.62-5.59 0.94l-0.12 0.02c7.9-3.03 16.01-5.5 24.54-5.58h0.57z"/>
   <path class="fil0" d="m45.89 71.63c4.18 0.01 8.35 0.26 12.49 0.7l0.16 0.02c8.15 1.16 16.16 3.33 24.01 5.82 5.41 1.7 10.94 3.03 16.53 3.98 0 0 4.02 0.75 7 1.18 14.01 2 28.33 1.77 42.54-1 3.71-0.74 7.42-1.49 11.13-2.24l0.25-0.05c-12.22 3.68-24.31 7.15-37.3 8.04-7.98 0.55-16.01 0.28-23.84-0.76 0 0-3.07-0.5-5.5-1.01-11.55-2.42-22.72-6.98-35.09-8.79 0 0-2.96-0.5-5.32-0.82-13.97-1.86-28.25-1.51-41.83 1.14-3.63 0.71-7.26 1.44-10.88 2.16l-0.24 0.04c13.03-3.96 26.17-7.59 40.06-8.27 1.95-0.1 3.88-0.14 5.83-0.14z"/>
   <path class="fil0" d="m25.11 82.69c1.42 0.01 2.85 0.1 4.27 0.22l0.1 0.01c6.98 1.08 13.62 4.07 20.28 5.29 0 0 1.96 0.45 3.4 0.72 7.04 1.34 14.26 1.45 21.14 0.32 1.86-0.32 3.71-0.64 5.57-0.96l0.13-0.02c-6.99 2.63-13.92 4.95-21.7 5.4-3.15 0.19-6.26 0.08-9.34-0.32-3.97-0.51-8.59-2.34-12.54-3.54-0.94-0.28-1.87-0.53-2.82-0.77-1.54-0.38-3.1-0.68-4.66-0.93 0 0-2.13-0.43-3.66-0.69-6.47-1.09-13.11-1.14-19.57-0.11-1.87 0.31-3.73 0.63-5.59 0.94l-0.12 0.02c7.9-3.03 16.01-5.5 24.54-5.58h0.57z"/>
  
 
</svg>
