<?xml version="1.0" encoding="UTF-8"?>
<!DOCTYPE svg  PUBLIC '-//W3C//DTD SVG 1.1//EN'  'http://www.w3.org/Graphics/SVG/1.1/DTD/svg11.dtd'>
<svg clip-rule="evenodd" fill-rule="evenodd" image-rendering="optimizeQuality" shape-rendering="geometricPrecision" text-rendering="geometricPrecision" version="1.1" viewBox="0 0 160 160" xml:space="preserve" xmlns="http://www.w3.org/2000/svg">
 <defs>
  <style type="text/css">
   <![CDATA[
    .fil0 {fill:#7B7A7D}
   ]]>
  </style>
 </defs>
 
  
  <path class="fil0" d="m119.39 97c0 13.22 0.22 20.29-11.25 31.75-9.82 9.8-16.03 12.25-30.75 12.25-13.08 0-22.23-7.93-30.28-16.72-6.76-7.38-10.25-29.36-4.38-37.11 4.91 6.74 19.63 16.83 28.65 16.83 17.04 0 30.69 1.57 45.35-16.83 2.18 3.04 2.66 5.84 2.66 9.83zm-73-18c16.08-24.32 51.35-23.52 67.08 0.09-17.95 23.93-50.29 25.36-67.08-0.09zm73-26c0 4.81 0.5 13.99-2.35 17.83-5.95-4.19-15.76-16.83-31.65-16.83-12.5 0-17.29-0.94-29.35 5.66-6.77 3.7-10.27 8.91-13.65 11.51-4.15-6.62-3.03-22.28 0.33-28.84 24.29-47.47 76.67-19.4 76.67 10.67zm-87 107 6.83-0.06 0.19-32.86c4.89 6.24 8.8 10.75 15.99 14.91 3.13 1.81 7.06 3.68 10.37 4.62 34.07 9.7 61.61-17.43 61.61-42.61 0-20.63-4.99-20.35-4.99-25 1.15-4.76 4.99-10.24 4.99-15 0-4.88 0.88-13-0.8-17.2-1.21-3.04-0.55-1.19-1.41-4.58-6.19-24.31-42.45-44-69.6-26.03-3.63 2.4-5.37 3.45-8.44 6.56-1.8 1.82-6.22 7.17-7.49 8.16l-0.27-30.74-6.98-0.17v160z"/>
 
</svg>
