<?xml version="1.0" encoding="UTF-8"?>
<!DOCTYPE svg  PUBLIC '-//W3C//DTD SVG 1.1//EN'  'http://www.w3.org/Graphics/SVG/1.1/DTD/svg11.dtd'>
<svg clip-rule="evenodd" fill-rule="evenodd" image-rendering="optimizeQuality" shape-rendering="geometricPrecision" text-rendering="geometricPrecision" version="1.1" viewBox="0 0 160 160" xml:space="preserve" xmlns="http://www.w3.org/2000/svg">
 <defs>
  <style type="text/css">
   
    .fil0 {fill:url(#a)}
   
  </style>
  <linearGradient id="a" x1="61.72" x2="80.98" y1="51.27" y2="242.08" gradientUnits="userSpaceOnUse">
   <stop stop-color="#373535" offset="0"/>
   <stop stop-color="#fff" offset="1"/>
  </linearGradient>
 </defs>
 
  
  <path class="fil0" d="m49.67 52.45c-1.28-2.28-2.18-4.63-1.37-7.15 0.76-2.33 1.73-4.63 2.92-6.76 1.13-2.02 3.11-3.1 5.41-3.54 0.74-0.14 1.46-0.39 2.19-0.58 0.73-0.2 1.46-0.47 2.2-0.55 3.22-0.34 9.07 1.71 11.34 4 1.24 1.26 2.43 2.57 3.54 3.93 1.07 1.31 1.54 2.9 1.77 4.56 0.15 1.06 0.33 2.11 0.46 3.18 0.09 0.75 0.27 1.53 0.13 2.25-0.37 2.05-0.54 4.24-1.42 6.07-1.5 3.13-2.53 6.68-5.93 8.57-0.63 0.35-1.01 1.12-1.58 1.61-2.02 1.73-7.95 3.67-10.61 3.52-0.44-0.03-0.9-0.09-1.32 0.02-1.6 0.44-3.12 0.15-4.67-0.29-0.96-0.27-2.07-0.09-2.99-0.44-2.69-1.02-5.65-1.33-8.02-3.23-1.07-0.85-2.48-1.27-3.57-2.1-2.89-2.19-5.14-4.98-7.09-8.02-0.17-0.26-0.37-0.53-0.47-0.82-0.89-2.81-2.28-5.41-2.72-8.44-0.36-2.47-0.57-4.92-0.46-7.35 0.13-2.69 0.71-5.37 1.11-8.05 0.14-0.93 0.2-1.92 0.56-2.77 1.02-2.37 1.6-4.89 2.73-7.25 1.02-2.13 2.36-4.03 3.4-6.11 0.06-0.11 0.1-0.24 0.18-0.33 1.88-2.04 3.23-4.55 5.57-6.16 0.42-0.29 0.76-0.67 1.12-1.01 0.33-0.31 0.58-0.74 0.95-0.93 2.47-1.26 4.39-3.43 7.18-4.18 1.02-0.27 1.88-1.17 2.9-1.36 2.42-0.47 4.61-1.68 7.15-1.77 2.32-0.07 4.62-0.59 6.93-0.9 0.25-0.04 0.51-0.09 0.76-0.07 2.44 0.19 4.89 0.35 7.33 0.6 2.19 0.23 4.39 0.5 6.56 0.89 1.98 0.35 3.97 0.78 5.9 1.37 2.71 0.82 5.42 1.7 8.04 2.77 2.22 0.9 4.34 2.04 6.44 3.18 2 1.08 3.96 2.23 5.86 3.46 1.43 0.93 2.82 1.94 4.07 3.09 2 1.82 3.88 3.79 5.8 5.7 0.45 0.45 0.88 0.9 1.29 1.38 0.57 0.68 1.13 1.37 1.66 2.06 0.54 0.7 1.04 1.43 1.57 2.14 0.18 0.25 0.46 0.46 0.57 0.74 0.89 2.31 2.71 4.08 3.46 6.5 0.67 2.15 1.89 4.13 2.66 6.26 0.73 2.01 1.31 4.08 1.76 6.17 0.56 2.58 1.03 5.2 1.32 7.82 0.27 2.43 0.25 4.89 0.37 7.34 0.03 0.69 0.19 1.38 0.14 2.06-0.15 2.39-0.33 4.79-0.56 7.17-0.2 2.06-0.41 4.12-0.71 6.17-0.31 2.12-0.68 4.23-1.12 6.33-0.52 2.46-1.08 4.92-1.75 7.35-0.62 2.25-1.4 4.46-2.14 6.67-0.66 1.97-1.33 3.93-2.07 5.87-0.68 1.77-1.33 3.56-2.23 5.22-1.82 3.38-3.25 6.97-5.56 10.09-1.31 1.77-2.26 3.8-3.54 5.58-1.36 1.9-2.89 3.67-4.4 5.45-1.39 1.63-2.79 3.26-4.31 4.76-1.79 1.77-3.68 3.44-5.6 5.07-1.53 1.3-3.11 2.55-4.77 3.69-2.22 1.54-4.51 2.98-6.82 4.39-1.39 0.85-2.86 1.59-4.32 2.33-1.98 0.98-3.96 1.97-5.97 2.86-1.62 0.71-3.26 1.42-4.95 1.88-3.72 0.99-7.3 2.46-11.17 2.91-2.12 0.25-4.18 0.92-6.29 1.31-1.49 0.27-3 0.45-4.5 0.58-2.27 0.19-4.54 0.31-6.81 0.44-2.07 0.11-4.15 0.09-6.21 0.3-5.13 0.54-9.15-3.35-9.66-7.93-0.57-5.19 3.41-9.47 8.62-9.36 3.73 0.08 7.44-0.07 11.13-0.59 3.19-0.44 6.39-0.82 9.57-1.31 1.44-0.23 2.86-0.57 4.24-1.02 3.55-1.14 7.17-2.14 10.56-3.63 3.97-1.76 7.82-3.79 11.44-6.29 3.61-2.49 6.94-5.3 9.96-8.42 3.03-3.12 5.83-6.49 8.04-10.27 1.6-2.72 3.38-5.35 4.78-8.17 1.41-2.81 2.48-5.8 3.64-8.73 0.69-1.76 1.32-3.55 1.92-5.35 0.48-1.43 0.97-2.88 1.27-4.36 0.91-4.45 2.06-8.85 2.44-13.4 0.25-3.02 0.74-6.03 0.72-9.05-0.02-3.01-0.37-6.06-0.87-9.04-0.48-2.85-1.13-5.71-2.08-8.43-0.86-2.49-2.17-4.83-3.4-7.17-1.39-2.65-3.38-4.9-5.53-6.92-1.97-1.85-4.12-3.57-6.41-4.97-2.74-1.68-5.69-3.02-8.6-4.4-1.25-0.59-2.6-1.01-3.95-1.32-3.44-0.81-6.87-1.75-10.37-2.18-4.01-0.49-8.07-0.49-12.09 0.43-3.26 0.75-6.24 2.01-8.86 4.08-1.95 1.54-3.53 3.41-4.81 5.54-2.17 3.64-3.4 7.63-3.98 11.77-0.47 3.38-0.48 6.81 1.35 9.96 0.85 1.47 2.01 2.49 3.65 3.03z"/>
 
</svg>
