<?xml version="1.0" encoding="UTF-8"?>
<!DOCTYPE svg  PUBLIC '-//W3C//DTD SVG 1.1//EN'  'http://www.w3.org/Graphics/SVG/1.1/DTD/svg11.dtd'>
<svg clip-rule="evenodd" fill-rule="evenodd" image-rendering="optimizeQuality" shape-rendering="geometricPrecision" text-rendering="geometricPrecision" version="1.1" viewBox="0 0 160 160" xml:space="preserve" xmlns="http://www.w3.org/2000/svg">
 <defs>
  <style type="text/css">
   <![CDATA[
    .fil0 {fill:#BFB58A;fill-rule:nonzero}
   ]]>
  </style>
 </defs>
 
  
  
   
    <path class="fil0" d="m78.03 51.32s-25.8-5.62-26.55 4.95c-1.34 19.04 38.96 63.51 38.96 63.51s-55.85-37.39-56.23-69.71c-0.29-22.86 43.82 1.25 43.82 1.25z"/>
    <path class="fil0" d="m84.94 51.38 22.86-10.72c1.71-0.76 5.27-0.5 6.64 0.81l11.5 9.99c1.72 1.66 1.83 5.91 0.29 7.72l-41.29 47.32c26.12-48.77 30.75-50.41 27.02-53.78-2.91-2.63-4.14-3.99-5.33-4.37-1.43-0.41-7.05 1.45-21.69 3.03z"/>
    <path class="fil0" d="m63.62 108.34s-60.4-17.16-63.6 8.21c-0.7 5.5 17.59-10.6 63.6-8.21z"/>
    <path class="fil0" d="m96.35 108.34s60.4-17.16 63.63 8.21c0.7 5.5-17.62-10.6-63.63-8.21z"/>
   
  
 
</svg>
