<?xml version="1.0" encoding="UTF-8"?>
<svg enable-background="new 0 0 112 80" version="1.1" viewBox="0 0 112 80" xml:space="preserve" xmlns="http://www.w3.org/2000/svg">
<style type="text/css">
	.st0{display:none;}
</style>
<title>Skolkovo Logo</title>
<desc>Created with Sketch.</desc>

	<g transform="translate(-115 -30)">
		<g transform="translate(115 30)">
			<path d="M110,2v76H2V2H110 M112,0H0v80h112V0L112,0z"/>
		</g>
	</g>

<g transform="translate(11 15)">
	<path class="st0" d="m8.2 44.8c-0.2-0.7-0.6-2.1-2.6-2.1-1.2 0-2.9 0.8-2.9 4.1 0 2.1 0.9 4 2.9 4 1.3 0 2.3-0.8 2.6-2.2h2.4c-0.5 2.5-2.1 4.3-5.1 4.3-3.1 0-5.3-2.1-5.3-6.1s2.3-6.1 5.3-6.1c3.5 0 4.9 2.4 5 4.1h-2.3"/>
	<polygon class="st0" points="13.6 47.2 16.4 44 19.2 44 16.2 47.3 19.3 52.6 16.6 52.6 14.5 48.9 13.6 49.9 13.6 52.6 11.3 52.6 11.3 44 13.6 44"/>
	<path class="st0" d="m21.1 48.3c0 1.1 0.3 2.6 2.1 2.6 1.7 0 2.1-1.5 2.1-2.6s-0.3-2.6-2.1-2.6-2.1 1.5-2.1 2.6m6.5 0c0 3.1-2.1 4.5-4.4 4.5s-4.4-1.4-4.4-4.5 2.1-4.5 4.4-4.5 4.4 1.4 4.4 4.5"/>
	<path class="st0" d="m36.1 44v8.6h-2.3v-6.8h-2.4v2.6c0 3.3-1 4.3-2.6 4.3-0.4 0-1-0.1-1.4-0.2v-1.7s0.3 0.1 0.7 0.1c0.7 0 1-0.3 1-2.9v-4h7"/>
	<polygon class="st0" points="39.5 47.2 42.4 44 45.2 44 42.1 47.3 45.2 52.6 42.5 52.6 40.5 48.9 39.5 49.9 39.5 52.6 37.3 52.6 37.3 44 39.5 44"/>
	<path class="st0" d="m47 48.3c0 1.1 0.3 2.6 2.1 2.6s2.1-1.5 2.1-2.6-0.3-2.6-2.1-2.6c-1.7 0-2.1 1.5-2.1 2.6m6.5 0c0 3.1-2.1 4.5-4.4 4.5s-4.4-1.4-4.4-4.5 2.1-4.5 4.4-4.5 4.4 1.4 4.4 4.5"/>
	<path class="st0" d="m56.5 51h1.7c0.8 0 1.3-0.3 1.3-1.1 0-0.7-0.5-1.1-1.4-1.1h-1.6v2.2zm0-3.5h1.5c0.8 0 1.3-0.3 1.3-1s-0.5-1-1.3-1h-1.5v2zm-2.2-3.5h3.9c1.9 0 3.3 0.8 3.3 2.2 0 1-0.7 1.6-1.6 1.8 0.9 0.2 1.9 0.8 1.9 2.2 0 1.6-1.2 2.3-3.2 2.3h-4.3v-8.5z"/>
	<path class="st0" d="m64.3 48.3c0 1.1 0.3 2.6 2.1 2.6 1.7 0 2.1-1.5 2.1-2.6s-0.3-2.6-2.1-2.6c-1.7 0-2.1 1.5-2.1 2.6m6.5 0c0 3.1-2.1 4.5-4.4 4.5s-4.4-1.4-4.4-4.5 2.1-4.5 4.4-4.5 4.4 1.4 4.4 4.5"/>
	<path d="m21.6 16.9-9-2.2c-1.5-0.4-3.9-1-3.9-3.8 0-3.3 3.5-4.4 6.5-4.4 6.7 0 7.3 3.9 7.5 5.6h4.3v6.8c-1.6-0.9-3.5-1.5-5.4-2m-4.9 21.9c1.9 0 6.7-0.3 10.2-2.9v2h7.2v-8.6l3-3.1 6.5 11.7h8.6l-9.9-16.7 9.7-10.6h-8.8l-9.1 10.3v-19.8h-7.2v3.1c-2.2-2.2-5.7-4-11.2-4-12 0-14.2 7.2-14.2 11.3 0 5.6 3 8.6 8.2 9.9l7.4 1.8c3.9 1 6.7 1.7 6.7 4.5 0 3.8-4.1 4.7-7.7 4.7-6.7 0-7.8-3.9-7.8-6h-7.4c0 4.6 2.4 12.4 15.8 12.4"/>
</g>

	<path d="m11.1 64 2.5-0.2c0.1 0.8 0.4 1.4 0.9 1.8s1.1 0.6 1.8 0.6c0.8 0 1.4-0.2 1.8-0.5s0.6-0.8 0.6-1.2c0-0.3-0.1-0.5-0.3-0.8-0.2-0.2-0.5-0.4-0.9-0.5-0.3-0.1-1-0.3-2-0.5-1.4-0.3-2.3-0.8-2.9-1.2-0.8-0.7-1.2-1.5-1.2-2.5 0-0.6 0.2-1.2 0.5-1.8 0.4-0.6 0.9-1 1.6-1.3s1.5-0.4 2.5-0.4c1.6 0 2.8 0.3 3.6 1s1.2 1.6 1.3 2.8l-2.5 0.1c-0.1-0.6-0.3-1.1-0.7-1.4s-0.9-0.4-1.6-0.4-1.3 0.2-1.7 0.5c-0.3-0.1-0.4 0.2-0.4 0.5s0.1 0.6 0.4 0.8c0.3 0.3 1.1 0.5 2.3 0.8s2.1 0.6 2.7 0.9 1.1 0.7 1.4 1.3c0.3 0.5 0.5 1.2 0.5 2 0 0.7-0.2 1.4-0.6 2s-1 1.1-1.7 1.4-1.6 0.5-2.7 0.5c-1.6 0-2.8-0.4-3.7-1.1-0.8-0.8-1.3-1.8-1.5-3.2z"/>
	<path d="M23.3,68.1V55.5h2.4v6.7l2.8-3.2h3l-3.1,3.3l3.3,5.8h-2.6L26.9,64l-1.1,1.2v2.9H23.3z"/>
	<path d="m32.6 63.4c0-0.8 0.2-1.6 0.6-2.3s1-1.3 1.7-1.7 1.5-0.6 2.4-0.6c1.4 0 2.5 0.4 3.4 1.3s1.3 2 1.3 3.4-0.4 2.5-1.3 3.4-2 1.4-3.4 1.4c-0.8 0-1.6-0.2-2.4-0.6s-1.3-0.9-1.7-1.7c-0.4-0.7-0.6-1.6-0.6-2.6zm2.5 0.1c0 0.9 0.2 1.6 0.6 2.1s1 0.7 1.6 0.7 1.2-0.2 1.6-0.7 0.6-1.2 0.6-2.1-0.2-1.6-0.6-2.1-1-0.7-1.6-0.7-1.2 0.2-1.6 0.7-0.6 1.2-0.6 2.1z"/>
	<path d="M43.9,68.1V55.5h2.4v12.6H43.9z"/>
	<path d="M48.7,68.1V55.5h2.4v6.7l2.8-3.2h3l-3.1,3.3l3.3,5.8h-2.6L52.2,64l-1.1,1.2v2.9H48.7z"/>
	<path d="m58 63.4c0-0.8 0.2-1.6 0.6-2.3s1-1.3 1.7-1.7 1.5-0.6 2.4-0.6c1.4 0 2.5 0.4 3.4 1.3s1.3 2 1.3 3.4-0.4 2.5-1.3 3.4-2 1.4-3.4 1.4c-0.8 0-1.6-0.2-2.4-0.6s-1.3-0.9-1.7-1.7-0.6-1.6-0.6-2.6zm2.5 0.1c0 0.9 0.2 1.6 0.6 2.1s1 0.7 1.6 0.7 1.2-0.2 1.6-0.7 0.6-1.2 0.6-2.1-0.2-1.6-0.6-2.1-1-0.7-1.6-0.7-1.2 0.2-1.6 0.7-0.6 1.2-0.6 2.1z"/>
	<path d="m71.8 68.1-3.7-9.1h2.5l1.7 4.6 0.5 1.6c0.1-0.4 0.2-0.7 0.2-0.8 0.1-0.3 0.2-0.5 0.3-0.8l1.7-4.6h2.5l-3.6 9.1h-2.1z"/>
	<path d="m78.5 63.4c0-0.8 0.2-1.6 0.6-2.3s1-1.3 1.7-1.7 1.5-0.6 2.4-0.6c1.4 0 2.5 0.4 3.4 1.3s1.3 2 1.3 3.4-0.4 2.5-1.3 3.4-2 1.4-3.4 1.4c-0.8 0-1.6-0.2-2.4-0.6s-1.3-0.9-1.7-1.7-0.6-1.6-0.6-2.6zm2.5 0.1c0 0.9 0.2 1.6 0.6 2.1s1 0.7 1.6 0.7 1.2-0.2 1.6-0.7 0.6-1.2 0.6-2.1-0.2-1.6-0.6-2.1-1-0.7-1.6-0.7-1.2 0.2-1.6 0.7-0.6 1.2-0.6 2.1z"/>

</svg>
