<?xml version="1.0" encoding="UTF-8"?>
<!DOCTYPE svg  PUBLIC '-//W3C//DTD SVG 1.1//EN'  'http://www.w3.org/Graphics/SVG/1.1/DTD/svg11.dtd'>
<svg clip-rule="evenodd" fill-rule="evenodd" image-rendering="optimizeQuality" shape-rendering="geometricPrecision" text-rendering="geometricPrecision" version="1.1" viewBox="0 0 160 160" xml:space="preserve" xmlns="http://www.w3.org/2000/svg">
 <defs>
  <style type="text/css">
   <![CDATA[
    .fil5 {fill:black;fill-rule:nonzero}
    .fil0 {fill:#0088EE;fill-rule:nonzero}
    .fil1 {fill:#22CC22;fill-rule:nonzero}
    .fil4 {fill:#55DDDD;fill-rule:nonzero}
    .fil2 {fill:#EE6622;fill-rule:nonzero}
    .fil3 {fill:#FFCC00;fill-rule:nonzero}
   ]]>
  </style>
 </defs>
 
  
  
   <path class="fil0" d="m20.95 23.86c3.32-3.32 8.74-3.2 11.9 0.27l24.86 27.22c2.36 2.59 2.27 6.58-0.21 9.06-2.47 2.48-6.46 2.57-9.05 0.2l-27.23-24.85c-3.46-3.17-3.58-8.59-0.27-11.9z"/>
   <path class="fil1" d="m78.55 0c4.69 0 8.44 3.92 8.22 8.61l-1.67 36.82c-0.16 3.5-3.05 6.26-6.55 6.26-3.51 0-6.39-2.76-6.55-6.26l-1.67-36.82c-0.22-4.69 3.52-8.61 8.22-8.61z"/>
   <path class="fil2" d="m136.14 23.86c3.32 3.31 3.2 8.73-0.27 11.9l-27.22 24.85c-2.59 2.37-6.58 2.28-9.06-0.2-2.47-2.48-2.57-6.47-0.2-9.06l24.85-27.22c3.17-3.47 8.59-3.59 11.9-0.27z"/>
   <path class="fil3" d="m160 81.45c0 4.69-3.92 8.44-8.61 8.22l-36.82-1.67c-3.5-0.16-6.26-3.04-6.26-6.55 0-3.5 2.76-6.39 6.26-6.55l36.82-1.67c4.69-0.22 8.61 3.53 8.61 8.22z"/>
   <path class="fil4" d="m99.59 102.5c2.48-2.48 6.47-2.57 9.06-0.21l27.22 24.86c3.47 3.16 3.59 8.58 0.27 11.9-3.31 3.31-8.73 3.19-11.9-0.27l-24.85-27.23c-2.37-2.59-2.27-6.58 0.2-9.05z"/>
   <path class="fil5" d="m84.64 75.36c2.47 2.47 2.52 6.45 0.12 8.98l-68.97 72.8c-3.54 3.74-9.47 3.82-13.11 0.18s-3.56-9.57 0.18-13.11l72.8-68.97c2.53-2.4 6.51-2.35 8.98 0.12z"/>
  
 
</svg>
